<?xml version="1.0" encoding="UTF-8" standalone="no"?><!DOCTYPE svg PUBLIC "-//W3C//DTD SVG 1.1//EN" "http://www.w3.org/Graphics/SVG/1.1/DTD/svg11.dtd"><svg width="100%" height="100%" viewBox="0 0 5888 2361" version="1.1" xmlns="http://www.w3.org/2000/svg" xmlns:xlink="http://www.w3.org/1999/xlink" xml:space="preserve" xmlns:serif="http://www.serif.com/" style="fill-rule:evenodd;clip-rule:evenodd;stroke-linecap:round;stroke-linejoin:round;stroke-miterlimit:1.5;"><g id="cityBottomBG"><path d="M5887.28,2360.07l-5887.28,-21.72l5882.29,-2338.35l4.994,2360.07Z" style="fill:#9221ff;"/><g id="city"><rect x="35.572" y="1261.25" width="541.12" height="1084.7"/><path d="M576.692,1261.25c-0,0 75.25,-56.439 108.721,-146.024c0,-0 479.337,-149.742 548.197,-473.876c-0,0 423.89,1198.44 960.448,1205.24" style="fill:none;stroke:#000;stroke-width:4.17px;"/><path d="M167.271,1252.05c-0,-2.554 -2.074,-4.628 -4.629,-4.628l-26.305,0c-2.555,0 -4.629,2.074 -4.629,4.628l0,9.257c0,2.554 2.074,4.628 4.629,4.628l26.305,0c2.555,0 4.629,-2.074 4.629,-4.628l-0,-9.257Z" style="fill:#212121;"/><rect x="287.487" y="1350.79" width="59.216" height="148.77" style="fill:#969696;"/><rect x="388.876" y="1350.79" width="161.556" height="62.366" style="fill:#f1e1b1;"/><rect x="634.709" y="1605.1" width="541.12" height="733.343"/><rect x="72.522" y="1600.84" width="541.12" height="733.343"/><rect x="470.595" y="1675.14" width="92.27" height="430.874" style="fill:#f1e1b1;"/><rect x="87.741" y="1675.14" width="92.27" height="430.874" style="fill:#969696;"/><rect x="292.014" y="2009.98" width="92.27" height="96.035" style="fill:#f1e1b1;"/><rect x="292.014" y="1844.46" width="92.27" height="96.035" style="fill:#f1e1b1;"/><rect x="292.014" y="1690.33" width="92.27" height="96.035" style="fill:#969696;"/><rect x="679.677" y="1116.95" width="541.12" height="1217.24"/><rect x="747.726" y="1210.89" width="74.337" height="76.657" style="fill:#f1e1b1;"/><rect x="747.726" y="1604.47" width="74.337" height="76.657" style="fill:#969696;"/><rect x="747.726" y="1959.7" width="74.337" height="76.657" style="fill:#969696;"/><rect x="747.726" y="1331.37" width="74.337" height="76.657" style="fill:#969696;"/><rect x="747.726" y="1724.94" width="74.337" height="76.657" style="fill:#969696;"/><rect x="747.726" y="2080.18" width="74.337" height="76.657" style="fill:#f1e1b1;"/><rect x="908.567" y="1210.89" width="74.337" height="76.657" style="fill:#969696;"/><rect x="908.567" y="1604.47" width="74.337" height="76.657" style="fill:#969696;"/><rect x="908.567" y="1959.7" width="74.337" height="76.657" style="fill:#969696;"/><rect x="1143.5" y="1959.7" width="74.337" height="76.657" style="fill:#969696;"/><rect x="1143.5" y="1602.47" width="74.337" height="76.657" style="fill:#f1e1b1;"/><rect x="1143.5" y="1202.21" width="74.337" height="76.657" style="fill:#969696;"/><rect x="908.567" y="1331.37" width="74.337" height="76.657" style="fill:#f1e1b1;"/><rect x="908.567" y="1724.94" width="74.337" height="76.657" style="fill:#f1e1b1;"/><rect x="908.567" y="2080.18" width="74.337" height="76.657" style="fill:#f1e1b1;"/><rect x="1143.5" y="2080.18" width="74.337" height="76.657" style="fill:#f1e1b1;"/><rect x="1143.5" y="1722.94" width="74.337" height="76.657" style="fill:#969696;"/><rect x="1143.5" y="1322.68" width="74.337" height="76.657" style="fill:#969696;"/><path d="M1134.96,1081.6c0,-4.288 -3.481,-7.769 -7.769,-7.769l-15.539,-0c-4.288,-0 -7.77,3.481 -7.77,7.769l0,29.593c0,4.288 3.482,7.769 7.77,7.769l15.539,0c4.288,0 7.769,-3.481 7.769,-7.769l0,-29.593Z" style="fill:#212121;"/><rect x="1230.92" y="642.16" width="541.12" height="1706.93"/><rect x="1260.35" y="1210.89" width="74.337" height="76.657" style="fill:#969696;"/><rect x="1260.35" y="1604.47" width="74.337" height="76.657" style="fill:#969696;"/><rect x="1260.35" y="1959.7" width="74.337" height="76.657" style="fill:#969696;"/><rect x="1260.35" y="1331.37" width="74.337" height="76.657" style="fill:#f1e1b1;"/><rect x="1260.35" y="1724.94" width="74.337" height="76.657" style="fill:#f1e1b1;"/><rect x="1260.35" y="2080.18" width="74.337" height="76.657" style="fill:#f1e1b1;"/><path d="M1571.36,1844.96l0,-74.337l-76.657,-0l-0,74.337l76.657,-0Z" style="fill:#969696;"/><path d="M1571.36,2079.89l0,-74.337l-76.657,0l-0,74.337l76.657,0Z" style="fill:#f1e1b1;"/><path d="M1450.89,1844.96l0,-74.337l-76.657,-0l-0,74.337l76.657,-0Z" style="fill:#f1e1b1;"/><path d="M1450.89,2079.89l0,-74.337l-76.657,0l-0,74.337l76.657,0Z" style="fill:#f1e1b1;"/><path d="M2404.21,2018.73c-0,-3.012 -2.445,-5.457 -5.457,-5.457l-10.913,0c-3.012,0 -5.457,2.445 -5.457,5.457l0,289.082c0,3.012 2.445,5.457 5.457,5.457l10.913,0c3.012,0 5.457,-2.445 5.457,-5.457l-0,-289.082Z" style="fill:#191919;stroke:#000;stroke-width:4.17px;"/><rect x="1267.2" y="749.078" width="504.956" height="83.744" style="fill:#f1e1b1;"/><rect x="1267.2" y="951.023" width="505.007" height="83.744" style="fill:#f1e1b1;"/><rect x="1267.2" y="1464.26" width="504.49" height="83.744" style="fill:#f1e1b1;"/><rect x="1388.01" y="592.501" width="247.423" height="50.616"/><rect x="4750.67" y="642.16" width="541.12" height="1706.93" style="fill:#191919;"/><path d="M5058.7,1610.35l0,74.337l76.657,0l0,-74.337l-76.657,0Z" style="fill:#fdebc0;"/><path d="M5058.7,1240.7l0,74.337l76.657,0l0,-74.337l-76.657,0Z" style="fill:#969696;"/><path d="M5058.7,844.041l0,74.336l76.657,0l0,-74.336l-76.657,-0Z" style="fill:#fdebc0;"/><path d="M5063.12,1721.54l-0,74.337l76.657,-0l-0,-74.337l-76.657,0Z" style="fill:#fdebc0;"/><path d="M5063.12,1351.89l-0,74.337l76.657,-0l-0,-74.337l-76.657,-0Z" style="fill:#969696;"/><path d="M5063.12,955.228l-0,74.337l76.657,-0l-0,-74.337l-76.657,0Z" style="fill:#fdebc0;"/><rect x="5166.4" y="1555.38" width="74.337" height="76.657" style="fill:#969696;"/><rect x="5166.4" y="1198.14" width="74.337" height="76.657" style="fill:#969696;"/><rect x="5166.4" y="797.886" width="74.337" height="76.657" style="fill:#fdebc0;"/><rect x="5166.4" y="1675.85" width="74.337" height="76.657" style="fill:#969696;"/><rect x="5166.4" y="1318.62" width="74.337" height="76.657" style="fill:#969696;"/><rect x="5166.4" y="918.361" width="74.337" height="76.657" style="fill:#fdebc0;"/><path d="M5291.79,642.16c-0,-0 339.563,355.641 566.986,294.72" style="fill:none;stroke:#000;stroke-width:4.17px;"/><rect x="5315.93" y="933.003" width="541.12" height="1416.08"/><rect x="5503.19" y="981.317" width="74.337" height="76.657" style="fill:#969696;"/><rect x="5503.19" y="1374.89" width="74.337" height="76.657" style="fill:#f1e1b1;"/><rect x="5503.19" y="1730.12" width="74.337" height="76.657" style="fill:#969696;"/><rect x="5503.19" y="1101.79" width="74.337" height="76.657" style="fill:#969696;"/><rect x="5503.19" y="1495.36" width="74.337" height="76.657" style="fill:#f1e1b1;"/><rect x="5664.04" y="981.317" width="74.337" height="76.657" style="fill:#f1e1b1;"/><rect x="5664.04" y="1374.89" width="74.337" height="76.657" style="fill:#f1e1b1;"/><rect x="5664.04" y="1730.12" width="74.337" height="76.657" style="fill:#969696;"/><rect x="5664.04" y="1101.79" width="74.337" height="76.657" style="fill:#969696;"/><rect x="5664.04" y="1495.36" width="74.337" height="76.657" style="fill:#969696;"/><rect x="5488.06" y="843.529" width="33.473" height="92.593"/><rect x="4457.45" y="1780.87" width="541.12" height="568.218" style="fill:#0a0a0a;"/><rect x="3238.84" y="1844.24" width="541.12" height="504.842"/><rect x="3446.51" y="1886.42" width="74.337" height="65.3" style="fill:#f1e1b1;"/><rect x="3446.51" y="2075.21" width="74.337" height="65.3" style="fill:#f1e1b1;"/><rect x="3320.58" y="2189.89" width="74.337" height="65.3" style="fill:#969696;"/><rect x="3317.97" y="1886.42" width="74.337" height="65.3" style="fill:#f1e1b1;"/><rect x="3317.97" y="2075.21" width="74.337" height="65.3" style="fill:#969696;"/><rect x="3554.1" y="1886.42" width="74.337" height="65.3" style="fill:#f1e1b1;"/><rect x="3554.1" y="2075.21" width="74.337" height="65.3" style="fill:#f1e1b1;"/><rect x="3653.76" y="1886.42" width="74.337" height="65.3" style="fill:#f1e1b1;"/><rect x="3653.76" y="2075.21" width="74.337" height="65.3" style="fill:#969696;"/><rect x="3653.76" y="2183.15" width="74.337" height="65.3" style="fill:#969696;"/><rect x="2513.88" y="1705.63" width="541.12" height="643.456"/><rect x="2554.11" y="2189.89" width="74.337" height="65.3" style="fill:#969696;"/><path d="M2673.76,1759.46l0,74.336l65.3,0l0,-74.336l-65.3,-0Z" style="fill:#969696;"/><path d="M2925.41,1759.46l0,74.336l65.301,0l-0,-74.336l-65.301,-0Z" style="fill:#969696;"/><rect x="2551.5" y="1886.42" width="74.337" height="65.3" style="fill:#969696;"/><rect x="2551.5" y="2075.21" width="74.337" height="65.3" style="fill:#969696;"/><path d="M2559.08,1762.07l0,74.337l65.301,-0l-0,-74.337l-65.301,0Z" style="fill:#969696;"/><rect x="2667.81" y="1839.38" width="541.12" height="509.706" style="fill:#1a1a1a;"/><path d="M3155.23,2083.65l-0,-74.337l-65.301,0l0,74.337l65.301,-0Z" style="fill:#f1e1b1;"/><path d="M3155.23,1955.11l-0,-74.336l-65.301,-0l0,74.336l65.301,0Z" style="fill:#969696;"/><path d="M3155.23,2191.24l-0,-74.336l-65.301,-0l0,74.336l65.301,0Z" style="fill:#f1e1b1;"/><path d="M3155.23,2290.9l-0,-74.337l-65.301,-0l0,74.337l65.301,-0Z" style="fill:#969696;"/><path d="M2911.41,2075.67l-0,-74.337l-65.3,0l-0,74.337l65.3,-0Z" style="fill:#f1e1b1;"/><path d="M3005.53,1959.95l0,-74.337l-65.3,0l-0,74.337l65.3,-0Z" style="fill:#969696;"/><path d="M2801.38,1959.95l0,-74.337l-65.3,0l-0,74.337l65.3,-0Z" style="fill:#f1e1b1;"/><path d="M3012.14,2192.57l0,-74.336l-65.3,-0l0,74.336l65.3,0Z" style="fill:#969696;"/><path d="M2808.78,2194.88l0,-74.336l-65.3,-0l0,74.336l65.3,0Z" style="fill:#969696;"/><rect x="3112.49" y="1810.05" width="20.434" height="31.367"/><rect x="1653.63" y="1839.38" width="541.12" height="509.706" style="fill:#1b1b1b;"/><path d="M2170.62,1959.95l-0,-74.337l-65.3,0l-0,74.337l65.3,-0Z" style="fill:#969696;"/><path d="M1835.36,1959.95l-0,-74.337l-65.3,0l-0,74.337l65.3,-0Z" style="fill:#969696;"/><path d="M1837.06,2194.88l-0,-74.336l-65.301,-0l0,74.336l65.301,0Z" style="fill:#969696;"/><path d="M2178.02,2194.88l-0,-74.336l-65.3,-0l-0,74.336l65.3,0Z" style="fill:#969696;"/><path d="M2068,1959.95l0,-74.337l-65.3,0l0,74.337l65.3,-0Z" style="fill:#969696;"/><path d="M1732.73,1959.95l0,-74.337l-65.3,0l0,74.337l65.3,-0Z" style="fill:#969696;"/><path d="M1734.44,2194.88l0,-74.336l-65.3,-0l0,74.336l65.3,0Z" style="fill:#969696;"/><path d="M2075.39,2194.88l-0,-74.336l-65.3,-0l-0,74.336l65.3,0Z" style="fill:#969696;"/><path d="M2194.75,1839.38c-0,0 138.162,226.092 210.533,191.414c-0,0 112.43,-211.188 119.139,-325.475l534.403,9.688c-0,0 643.631,165.335 723.312,134.769c0,-0 97.636,256.079 409.992,-4.478c0,-0 -62.659,232.71 -396.233,30.814c0,-0 181.112,133.77 665.443,-91.688" style="fill:none;stroke:#000;stroke-width:4.17px;"/><rect x="4181.55" y="1839.38" width="541.12" height="509.706" style="fill:#111;"/><path d="M4271.45,1898.14l-0,74.337l76.657,-0l0,-74.337l-76.657,0Z" style="fill:#f1e1b1;"/><path d="M5097.46,1898.14l0,74.337l76.658,-0l-0,-74.337l-76.658,0Z" style="fill:#f1e1b1;"/><path d="M4907.47,1898.14l-0,74.337l76.657,-0l0,-74.337l-76.657,0Z" style="fill:#f1e1b1;"/><path d="M4691.51,1898.14l-0,74.337l76.657,-0l0,-74.337l-76.657,0Z" style="fill:#f1e1b1;"/><path d="M4508.36,1898.14l-0,74.337l76.657,-0l0,-74.337l-76.657,0Z" style="fill:#969696;"/><path d="M4275.87,2009.33l0,74.336l76.658,0l-0,-74.336l-76.658,-0Z" style="fill:#969696;"/><path d="M5101.88,2009.33l-0,74.336l76.657,0l0,-74.336l-76.657,-0Z" style="fill:#969696;"/><path d="M4911.89,2009.33l0,74.336l76.658,0l-0,-74.336l-76.658,-0Z" style="fill:#f1e1b1;"/><path d="M4695.93,2009.33l0,74.336l76.658,0l-0,-74.336l-76.658,-0Z" style="fill:#f1e1b1;"/><path d="M4512.77,2009.33l0,74.336l76.658,0l-0,-74.336l-76.658,-0Z" style="fill:#969696;"/></g></g></svg>