<?xml version="1.0" encoding="UTF-8" standalone="no"?><!DOCTYPE svg PUBLIC "-//W3C//DTD SVG 1.1//EN" "http://www.w3.org/Graphics/SVG/1.1/DTD/svg11.dtd"><svg width="100%" height="100%" viewBox="0 0 437 520" version="1.1" xmlns="http://www.w3.org/2000/svg" xmlns:xlink="http://www.w3.org/1999/xlink" xml:space="preserve" xmlns:serif="http://www.serif.com/" style="fill-rule:evenodd;clip-rule:evenodd;stroke-linecap:round;stroke-linejoin:round;stroke-miterlimit:1.5;"><g id="fullDesktopIcon"><g id="keyboard"><rect x="74.499" y="450.558" width="304.565" height="68.012" style="stroke:#6d6d6d;stroke-width:2.08px;"/><rect x="356.356" y="473.468" width="19.588" height="23.784" style="fill:none;stroke:#6d6d6d;stroke-width:1.04px;"/><rect x="83.155" y="455.746" width="6.381" height="5.91" style="fill:#8b8b8b;"/><rect x="138.787" y="464.696" width="7.585" height="11.054" style="fill:#8b8b8b;"/><rect x="138.787" y="478.418" width="7.585" height="11.054" style="fill:#8b8b8b;"/><rect x="138.787" y="493.799" width="7.585" height="11.054" style="fill:#8b8b8b;"/><rect x="103.258" y="478.418" width="7.585" height="11.054" style="fill:#8b8b8b;"/><rect x="103.258" y="493.799" width="7.585" height="11.054" style="fill:#8b8b8b;"/><rect x="239.301" y="464.696" width="7.585" height="11.054" style="fill:#8b8b8b;"/><rect x="239.301" y="478.418" width="7.585" height="11.054" style="fill:#8b8b8b;"/><rect x="239.301" y="493.799" width="7.585" height="11.054" style="fill:#8b8b8b;"/><rect x="189.563" y="464.696" width="7.585" height="11.054" style="fill:#8b8b8b;"/><rect x="189.563" y="478.418" width="7.585" height="11.054" style="fill:#8b8b8b;"/><rect x="189.563" y="493.799" width="7.585" height="11.054" style="fill:#8b8b8b;"/><rect x="290.076" y="464.696" width="7.585" height="11.054" style="fill:#8b8b8b;"/><rect x="290.076" y="478.418" width="7.585" height="11.054" style="fill:#8b8b8b;"/><rect x="290.076" y="493.799" width="7.585" height="11.054" style="fill:#8b8b8b;"/><rect x="151.965" y="464.696" width="7.585" height="11.054" style="fill:#8b8b8b;"/><rect x="151.965" y="478.418" width="7.585" height="11.054" style="fill:#8b8b8b;"/><rect x="151.965" y="493.799" width="7.585" height="11.054" style="fill:#8b8b8b;"/><rect x="116.436" y="478.418" width="7.585" height="11.054" style="fill:#8b8b8b;"/><rect x="116.436" y="493.799" width="7.585" height="11.054" style="fill:#8b8b8b;"/><rect x="252.479" y="464.696" width="7.585" height="11.054" style="fill:#8b8b8b;"/><rect x="252.479" y="478.418" width="7.585" height="11.054" style="fill:#8b8b8b;"/><rect x="252.479" y="493.799" width="7.585" height="11.054" style="fill:#8b8b8b;"/><rect x="202.741" y="464.696" width="7.585" height="11.054" style="fill:#8b8b8b;"/><rect x="202.741" y="478.418" width="7.585" height="11.054" style="fill:#8b8b8b;"/><rect x="202.741" y="493.799" width="7.585" height="11.054" style="fill:#8b8b8b;"/><rect x="303.255" y="464.696" width="7.585" height="11.054" style="fill:#8b8b8b;"/><rect x="303.255" y="478.418" width="7.585" height="11.054" style="fill:#8b8b8b;"/><rect x="303.255" y="493.799" width="7.585" height="11.054" style="fill:#8b8b8b;"/><rect x="358.798" y="490.429" width="3.624" height="5.281" style="fill:#8b8b8b;"/><rect x="358.798" y="483.26" width="3.624" height="5.281" style="fill:#8b8b8b;"/><rect x="358.798" y="476.117" width="3.624" height="5.281" style="fill:#8b8b8b;"/><rect x="164.268" y="464.696" width="7.585" height="11.054" style="fill:#8b8b8b;"/><rect x="164.268" y="478.418" width="7.585" height="11.054" style="fill:#8b8b8b;"/><rect x="164.268" y="493.799" width="7.585" height="11.054" style="fill:#8b8b8b;"/><rect x="128.739" y="478.418" width="7.585" height="11.054" style="fill:#8b8b8b;"/><rect x="128.739" y="493.799" width="7.585" height="11.054" style="fill:#8b8b8b;"/><rect x="264.782" y="464.696" width="7.585" height="11.054" style="fill:#8b8b8b;"/><rect x="264.782" y="478.418" width="7.585" height="11.054" style="fill:#8b8b8b;"/><rect x="264.782" y="493.799" width="7.585" height="11.054" style="fill:#8b8b8b;"/><rect x="215.044" y="464.696" width="7.585" height="11.054" style="fill:#8b8b8b;"/><rect x="215.044" y="478.418" width="7.585" height="11.054" style="fill:#8b8b8b;"/><rect x="215.044" y="493.799" width="7.585" height="11.054" style="fill:#8b8b8b;"/><rect x="315.557" y="464.696" width="7.585" height="11.054" style="fill:#8b8b8b;"/><rect x="315.557" y="478.418" width="7.585" height="11.054" style="fill:#8b8b8b;"/><rect x="315.557" y="493.799" width="7.585" height="11.054" style="fill:#8b8b8b;"/><rect x="364.676" y="490.429" width="3.624" height="5.281" style="fill:#8b8b8b;"/><rect x="364.676" y="483.26" width="3.624" height="5.281" style="fill:#8b8b8b;"/><rect x="364.676" y="476.117" width="3.624" height="5.281" style="fill:#8b8b8b;"/><rect x="176.723" y="464.696" width="7.585" height="11.054" style="fill:#8b8b8b;"/><rect x="176.723" y="478.418" width="7.585" height="11.054" style="fill:#8b8b8b;"/><rect x="176.723" y="493.799" width="7.585" height="11.054" style="fill:#8b8b8b;"/><rect x="277.236" y="464.696" width="7.585" height="11.054" style="fill:#8b8b8b;"/><rect x="277.236" y="478.418" width="7.585" height="11.054" style="fill:#8b8b8b;"/><rect x="277.236" y="493.799" width="7.585" height="11.054" style="fill:#8b8b8b;"/><rect x="227.498" y="464.696" width="7.585" height="11.054" style="fill:#8b8b8b;"/><rect x="227.498" y="478.418" width="7.585" height="11.054" style="fill:#8b8b8b;"/><rect x="227.498" y="493.799" width="7.585" height="11.054" style="fill:#8b8b8b;"/><rect x="162.658" y="507.783" width="133.468" height="8.27" style="fill:#8b8b8b;"/><rect x="328.012" y="464.696" width="7.585" height="11.054" style="fill:#8b8b8b;"/><path d="M338.937,478.418l-10.925,-0l-0,11.054l16.422,-0l-0,-0.11l3.811,-0l0,-17.136l-9.308,0l0,6.192Z" style="fill:#8b8b8b;"/><rect x="328.012" y="493.799" width="7.585" height="11.054" style="fill:#8b8b8b;"/><rect x="370.626" y="490.429" width="3.624" height="5.281" style="fill:#8b8b8b;"/><rect x="370.626" y="483.26" width="3.624" height="5.281" style="fill:#8b8b8b;"/><rect x="370.626" y="476.117" width="3.624" height="5.281" style="fill:#8b8b8b;"/></g><g id="Computer"><path id="Computer1" serif:id="Computer" d="M381.581,377.648c0,-5.326 -4.324,-9.651 -9.65,-9.651l-19.302,0c-5.326,0 -9.651,4.325 -9.651,9.651l0,40.991c0,5.326 4.325,9.651 9.651,9.651l19.302,-0c5.326,-0 9.65,-4.325 9.65,-9.651l0,-40.991Zm-125.071,-35.697c0,-5.669 -4.602,-10.272 -10.272,-10.272l-39.403,-0c-5.669,-0 -10.272,4.603 -10.272,10.272l-0,36.595c-0,5.669 4.603,10.272 10.272,10.272l39.403,-0c5.67,-0 10.272,-4.603 10.272,-10.272l0,-36.595Zm180.315,-307.543c0,-18.99 -15.418,-34.408 -34.408,-34.408l-368.009,0c-18.99,0 -34.408,15.418 -34.408,34.408l0,257.586c0,18.99 15.418,34.407 34.408,34.407l368.009,0c18.99,0 34.408,-15.417 34.408,-34.407l0,-257.586Z"/><clipPath id="_clip1"><path id="Computer2" serif:id="Computer" d="M381.581,377.648c0,-5.326 -4.324,-9.651 -9.65,-9.651l-19.302,0c-5.326,0 -9.651,4.325 -9.651,9.651l0,40.991c0,5.326 4.325,9.651 9.651,9.651l19.302,-0c5.326,-0 9.65,-4.325 9.65,-9.651l0,-40.991Zm-125.071,-35.697c0,-5.669 -4.602,-10.272 -10.272,-10.272l-39.403,-0c-5.669,-0 -10.272,4.603 -10.272,10.272l-0,36.595c-0,5.669 4.603,10.272 10.272,10.272l39.403,-0c5.67,-0 10.272,-4.603 10.272,-10.272l0,-36.595Zm180.315,-307.543c0,-18.99 -15.418,-34.408 -34.408,-34.408l-368.009,0c-18.99,0 -34.408,15.418 -34.408,34.408l0,257.586c0,18.99 15.418,34.407 34.408,34.407l368.009,0c18.99,0 34.408,-15.417 34.408,-34.407l0,-257.586Z"/></clipPath><g clip-path="url(#_clip1)"><path d="M365.002,369.774c0,-0.469 -0.381,-0.85 -0.85,-0.85l-1.701,-0c-0.469,-0 -0.85,0.381 -0.85,0.85l-0,8.069c-0,0.47 0.381,0.851 0.85,0.851l1.701,-0c0.469,-0 0.85,-0.381 0.85,-0.851l0,-8.069Z" style="fill:#6f6f6f;"/></g><ellipse cx="40.395" cy="303.221" rx="7.097" ry="5.553" style="fill:none;stroke:#78b2ff;stroke-width:3.33px;"/></g></g></svg>