<?xml version="1.0" encoding="UTF-8" standalone="no"?><!DOCTYPE svg PUBLIC "-//W3C//DTD SVG 1.1//EN" "http://www.w3.org/Graphics/SVG/1.1/DTD/svg11.dtd"><svg width="100%" height="100%" viewBox="0 0 1886 475" version="1.1" xmlns="http://www.w3.org/2000/svg" xmlns:xlink="http://www.w3.org/1999/xlink" xml:space="preserve" xmlns:serif="http://www.serif.com/" style="fill-rule:evenodd;clip-rule:evenodd;stroke-linejoin:round;stroke-miterlimit:2;"><g id="gameOneBg"><path d="M0,0l1885.13,2.834l-1883.56,471.539l-1.568,-474.373Zm224.999,303.973l50.856,66.275l13.938,-82.413l4.266,-1.062l19.575,78.595l-2.916,0.726l-18.499,-74.276l-14.114,82.399l-2.322,0.578l-50.856,-65.816l18.405,73.899l-2.915,0.726l-19.575,-78.595l4.157,-1.036Zm142.858,6.499l-39.416,9.817l8.981,36.059l44.923,-11.189l0.726,2.915l-47.839,11.915l-19.575,-78.595l47.839,-11.915l0.726,2.915l-44.924,11.188l8.417,33.792l39.416,-9.817l0.726,2.915Zm62.958,-15.681l-39.416,9.817l8.981,36.059l44.924,-11.189l0.726,2.915l-47.84,11.915l-19.575,-78.595l47.839,-11.915l0.726,2.915l-44.923,11.189l8.416,33.791l39.416,-9.817l0.726,2.915Zm64.885,-55.144l-28.617,7.128l18.849,75.68l-2.916,0.726l-18.849,-75.68l-28.617,7.127l-0.726,-2.914l60.15,-14.982l0.726,2.915Zm88.228,-21.974l-28.618,7.127l18.85,75.68l-2.916,0.727l-18.849,-75.68l-28.618,7.127l-0.726,-2.915l60.151,-14.981l0.726,2.915Zm88.664,58.291l-2.915,0.727l-9.707,-38.974l-50.216,12.507l9.707,38.973l-2.915,0.727l-19.576,-78.595l2.916,-0.727l9.142,36.707l50.216,-12.507l-9.142,-36.706l2.915,-0.727l19.575,78.595Zm54.224,-54.896l-39.417,9.817l8.981,36.059l44.924,-11.189l0.726,2.915l-47.84,11.915l-19.575,-78.595l47.84,-11.915l0.726,2.915l-44.924,11.189l8.416,33.791l39.417,-9.817l0.726,2.915Zm104.249,-10.142c1.261,8.285 0.019,15.197 -3.724,20.735c-3.744,5.537 -9.755,9.337 -18.034,11.399c-5.58,1.39 -10.872,1.208 -15.877,-0.546c-5.006,-1.753 -9.344,-4.934 -13.015,-9.542c-3.671,-4.609 -6.358,-10.255 -8.061,-16.94l-3.025,-12.145c-1.667,-6.694 -1.987,-12.968 -0.96,-18.823c1.026,-5.855 3.35,-10.762 6.971,-14.721c3.62,-3.959 8.238,-6.638 13.854,-8.037c8.207,-2.044 15.278,-1.512 21.213,1.596c5.935,3.108 10.285,8.599 13.048,16.471l-2.915,0.726c-2.63,-7.027 -6.519,-11.896 -11.667,-14.608c-5.148,-2.711 -11.466,-3.135 -18.953,-1.27c-7.632,1.901 -13.079,6.315 -16.343,13.243c-3.263,6.928 -3.689,15.232 -1.278,24.912l2.877,11.552c1.542,6.19 3.95,11.409 7.226,15.657c3.275,4.248 7.197,7.218 11.766,8.908c4.569,1.69 9.373,1.908 14.413,0.652c7.523,-1.873 12.938,-5.19 16.244,-9.95c3.307,-4.76 4.415,-10.941 3.324,-18.543l2.916,-0.726Zm59.758,-14.253l-38.498,9.589l-2.899,25.659l-3.186,0.794l9.852,-85.924l3.564,-0.888l49.002,71.266l-3.185,0.793l-14.65,-21.289Zm72.862,-13.217c-0.834,-3.347 -2.323,-5.986 -4.467,-7.917c-2.144,-1.931 -5.12,-3.368 -8.93,-4.311c-3.809,-0.943 -9.348,-1.503 -16.618,-1.68c-7.269,-0.177 -12.842,-0.795 -16.719,-1.855c-3.877,-1.06 -6.921,-2.653 -9.132,-4.777c-2.211,-2.125 -3.765,-4.987 -4.661,-8.585c-1.425,-5.722 -0.168,-10.956 3.773,-15.702c3.941,-4.746 9.781,-8.083 17.52,-10.011c5.04,-1.255 9.81,-1.402 14.312,-0.44c4.503,0.962 8.293,2.941 11.372,5.939c3.078,2.998 5.173,6.728 6.285,11.19l-2.916,0.727c-1.461,-5.866 -4.829,-10.177 -10.103,-12.934c-5.274,-2.757 -11.349,-3.279 -18.224,-1.567c-6.911,1.722 -12.117,4.652 -15.616,8.791c-3.499,4.14 -4.671,8.53 -3.514,13.173c1.174,4.714 3.973,8.049 8.398,10.004c4.424,1.956 11.178,2.978 20.26,3.066c9.083,0.088 15.967,1.097 20.653,3.026c5.962,2.451 9.719,6.79 11.27,13.015c0.985,3.959 0.741,7.737 -0.733,11.333c-1.475,3.597 -4.057,6.734 -7.749,9.412c-3.691,2.677 -8.093,4.652 -13.204,5.925c-5.688,1.417 -11.034,1.745 -16.04,0.986c-5.007,-0.76 -9.087,-2.6 -12.242,-5.522c-3.156,-2.921 -5.325,-6.757 -6.508,-11.507l2.916,-0.726c1.604,6.441 5.262,10.843 10.973,13.204c5.711,2.361 12.436,2.578 20.175,0.651c6.875,-1.713 12.153,-4.699 15.832,-8.96c3.679,-4.26 4.892,-8.91 3.637,-13.948Zm-111.006,19.622l36.338,-9.051l-30.269,-44.171l-6.069,53.222Zm167.474,-94.053l-28.617,7.127l18.849,75.68l-2.916,0.727l-18.849,-75.68l-28.617,7.127l-0.726,-2.915l60.15,-14.981l0.726,2.915Z" style="fill:#9221ff;"/><g><path d="M150.214,103.082l-0,14.007l-20.979,-0l-3.108,22.841l19.166,0l-0,14.008l-21.065,-0l-5.093,38.043l-15.195,-1.831l4.921,-36.212l-25.64,-0l-5.18,38.043l-15.367,-1.831l4.921,-36.531l-19.684,0l0,-13.689l21.842,0l3.108,-22.841l-19.943,-0l0,-14.007l21.842,-0l4.748,-35.656l15.108,1.831l-4.575,33.825l25.468,-0l4.834,-35.656l15.108,1.831l-4.575,33.825l19.338,-0Zm-36.605,14.007l-25.381,-0l-3.108,22.841l25.554,0l2.935,-22.841Z" style="fill:#fff;fill-opacity:0.07;fill-rule:nonzero;"/><path d="M201.322,85.891l-23.051,-0l11.051,-17.35l32.115,-0l0,122.882l-20.115,0l-0,-105.532Z" style="fill:#fff;fill-opacity:0.07;fill-rule:nonzero;"/></g></g></svg>