<?xml version="1.0" encoding="UTF-8" standalone="no"?>
<!DOCTYPE svg PUBLIC "-//W3C//DTD SVG 1.1//EN" "http://www.w3.org/Graphics/SVG/1.1/DTD/svg11.dtd">
<svg width="100%" height="100%" viewBox="0 0 94 94" version="1.1" xmlns="http://www.w3.org/2000/svg" xmlns:xlink="http://www.w3.org/1999/xlink" xml:space="preserve" xmlns:serif="http://www.serif.com/" style="fill-rule:evenodd;clip-rule:evenodd;stroke-linejoin:round;stroke-miterlimit:2;">
    <g transform="matrix(1,0,0,1,-8790.89,-4741.91)">
        <g transform="matrix(0.341158,0,0,0.427489,6068.44,2293.77)">
            <g id="moreToCome" transform="matrix(2.07267,1.6541,-2.17698,1.73734,7079.23,-17795.4)">
                <path d="M7410.82,6516.49L7393.47,6500L7393.65,6625.6L7410.91,6609.11L7410.82,6516.49Z" style="fill:rgb(146,33,255);"/>
                <clipPath id="_clip1">
                    <path d="M7410.82,6516.49L7393.47,6500L7393.65,6625.6L7410.91,6609.11L7410.82,6516.49Z"/>
                </clipPath>
                <g clip-path="url(#_clip1)">
                    <g transform="matrix(1.51964e-16,-0.631226,0.662993,0,3048.91,11243.6)">
                        <path d="M7359.61,6564.49L7361.54,6564.49L7361.54,6565.2C7361.91,6564.84 7362.23,6564.6 7362.49,6564.47C7362.77,6564.34 7363.12,6564.28 7363.55,6564.28C7364.49,6564.28 7365.24,6564.66 7365.78,6565.41C7366.39,6564.66 7367.21,6564.28 7368.25,6564.28C7370.13,6564.28 7371.07,6565.33 7371.07,6567.43L7371.07,6572.19L7369.13,6572.19L7369.13,6567.91C7369.13,6567.18 7369.03,6566.65 7368.84,6566.35C7368.64,6566.04 7368.31,6565.88 7367.85,6565.88C7367.32,6565.88 7366.93,6566.07 7366.69,6566.43C7366.45,6566.8 7366.32,6567.4 7366.32,6568.21L7366.32,6572.19L7364.39,6572.19L7364.39,6567.94C7364.39,6566.57 7363.96,6565.88 7363.1,6565.88C7362.56,6565.88 7362.16,6566.07 7361.91,6566.44C7361.66,6566.82 7361.54,6567.41 7361.54,6568.21L7361.54,6572.19L7359.61,6572.19L7359.61,6564.49Z" style="fill:rgb(255,209,0);fill-rule:nonzero;"/>
                        <path d="M7373.11,6568.28C7373.11,6567.17 7373.54,6566.23 7374.4,6565.45C7375.27,6564.67 7376.32,6564.28 7377.56,6564.28C7378.81,6564.28 7379.86,6564.67 7380.73,6565.45C7381.59,6566.24 7382.02,6567.2 7382.02,6568.35C7382.02,6569.5 7381.59,6570.47 7380.72,6571.25C7379.86,6572.02 7378.79,6572.41 7377.53,6572.41C7376.27,6572.41 7375.22,6572.02 7374.38,6571.23C7373.53,6570.44 7373.11,6569.47 7373.11,6568.28ZM7375.08,6568.32C7375.08,6569.09 7375.3,6569.69 7375.75,6570.14C7376.21,6570.6 7376.81,6570.82 7377.56,6570.82C7378.32,6570.82 7378.92,6570.6 7379.37,6570.15C7379.82,6569.7 7380.05,6569.1 7380.05,6568.36C7380.05,6567.61 7379.82,6567.01 7379.37,6566.56C7378.91,6566.11 7378.31,6565.88 7377.56,6565.88C7376.82,6565.88 7376.23,6566.11 7375.77,6566.56C7375.31,6567.01 7375.08,6567.6 7375.08,6568.32Z" style="fill:rgb(255,209,0);fill-rule:nonzero;"/>
                        <path d="M7384.06,6564.49L7385.99,6564.49L7385.99,6565.18C7386.34,6564.84 7386.66,6564.6 7386.93,6564.47C7387.21,6564.34 7387.55,6564.28 7387.93,6564.28C7388.44,6564.28 7388.97,6564.43 7389.52,6564.74L7388.64,6566.36C7388.27,6566.12 7387.92,6566 7387.57,6566C7386.52,6566 7385.99,6566.73 7385.99,6568.2L7385.99,6572.19L7384.06,6572.19L7384.06,6564.49Z" style="fill:rgb(255,209,0);fill-rule:nonzero;"/>
                        <path d="M7398.13,6568.76L7392.14,6568.76C7392.19,6569.39 7392.41,6569.9 7392.81,6570.27C7393.2,6570.64 7393.71,6570.82 7394.33,6570.82C7394.81,6570.82 7395.2,6570.72 7395.52,6570.51C7395.83,6570.3 7396.18,6569.9 7396.57,6569.34L7398.2,6570.17C7397.95,6570.57 7397.69,6570.91 7397.4,6571.19C7397.12,6571.47 7396.82,6571.7 7396.51,6571.89C7396.19,6572.07 7395.84,6572.2 7395.47,6572.28C7395.1,6572.37 7394.69,6572.41 7394.26,6572.41C7393.01,6572.41 7392.01,6572.04 7391.26,6571.3C7390.5,6570.56 7390.12,6569.58 7390.12,6568.35C7390.12,6567.13 7390.49,6566.15 7391.22,6565.39C7391.96,6564.65 7392.94,6564.28 7394.15,6564.28C7395.38,6564.28 7396.36,6564.64 7397.07,6565.36C7397.78,6566.08 7398.13,6567.07 7398.13,6568.34L7398.13,6568.76ZM7396.15,6567.3C7395.88,6566.36 7395.23,6565.88 7394.2,6565.88C7393.96,6565.88 7393.74,6565.91 7393.54,6565.98C7393.33,6566.05 7393.14,6566.14 7392.98,6566.26C7392.81,6566.39 7392.66,6566.54 7392.54,6566.71C7392.42,6566.89 7392.33,6567.08 7392.27,6567.3L7396.15,6567.3Z" style="fill:rgb(255,209,0);fill-rule:nonzero;"/>
                        <path d="M7407.65,6566.15L7407.65,6572.19L7405.72,6572.19L7405.72,6566.15L7404.89,6566.15L7404.89,6564.49L7405.72,6564.49L7405.72,6561.67L7407.65,6561.67L7407.65,6564.49L7409.15,6564.49L7409.15,6566.15L7407.65,6566.15Z" style="fill:rgb(255,209,0);fill-rule:nonzero;"/>
                        <path d="M7410.17,6568.28C7410.17,6567.17 7410.61,6566.23 7411.47,6565.45C7412.33,6564.67 7413.38,6564.28 7414.62,6564.28C7415.87,6564.28 7416.93,6564.67 7417.8,6565.45C7418.65,6566.24 7419.08,6567.2 7419.08,6568.35C7419.08,6569.5 7418.65,6570.47 7417.79,6571.25C7416.92,6572.02 7415.85,6572.41 7414.59,6572.41C7413.34,6572.41 7412.29,6572.02 7411.44,6571.23C7410.6,6570.44 7410.17,6569.47 7410.17,6568.28ZM7412.15,6568.32C7412.15,6569.09 7412.37,6569.69 7412.82,6570.14C7413.27,6570.6 7413.88,6570.82 7414.62,6570.82C7415.38,6570.82 7415.98,6570.6 7416.43,6570.15C7416.89,6569.7 7417.11,6569.1 7417.11,6568.36C7417.11,6567.61 7416.89,6567.01 7416.43,6566.56C7415.98,6566.11 7415.37,6565.88 7414.62,6565.88C7413.89,6565.88 7413.29,6566.11 7412.83,6566.56C7412.38,6567.01 7412.15,6567.6 7412.15,6568.32Z" style="fill:rgb(255,209,0);fill-rule:nonzero;"/>
                        <path d="M7433.05,6564.82L7433.05,6567.19C7432.61,6566.69 7432.21,6566.35 7431.86,6566.17C7431.52,6565.98 7431.12,6565.88 7430.65,6565.88C7429.93,6565.88 7429.32,6566.12 7428.84,6566.59C7428.36,6567.05 7428.12,6567.64 7428.12,6568.35C7428.12,6569.07 7428.36,6569.66 7428.82,6570.13C7429.29,6570.59 7429.88,6570.82 7430.61,6570.82C7431.07,6570.82 7431.48,6570.73 7431.84,6570.55C7432.18,6570.37 7432.58,6570.02 7433.05,6569.5L7433.05,6571.85C7432.26,6572.22 7431.48,6572.41 7430.7,6572.41C7429.4,6572.41 7428.32,6572.03 7427.45,6571.26C7426.59,6570.48 7426.15,6569.52 7426.15,6568.37C7426.15,6567.22 7426.59,6566.25 7427.47,6565.46C7428.35,6564.67 7429.43,6564.28 7430.71,6564.28C7431.54,6564.28 7432.31,6564.46 7433.05,6564.82Z" style="fill:rgb(255,209,0);fill-rule:nonzero;"/>
                        <path d="M7434.52,6568.28C7434.52,6567.17 7434.95,6566.23 7435.82,6565.45C7436.68,6564.67 7437.73,6564.28 7438.97,6564.28C7440.22,6564.28 7441.28,6564.67 7442.15,6565.45C7443,6566.24 7443.43,6567.2 7443.43,6568.35C7443.43,6569.5 7443,6570.47 7442.14,6571.25C7441.27,6572.02 7440.2,6572.41 7438.94,6572.41C7437.69,6572.41 7436.64,6572.02 7435.79,6571.23C7434.94,6570.44 7434.52,6569.47 7434.52,6568.28ZM7436.49,6568.32C7436.49,6569.09 7436.72,6569.69 7437.16,6570.14C7437.62,6570.6 7438.22,6570.82 7438.97,6570.82C7439.73,6570.82 7440.33,6570.6 7440.78,6570.15C7441.23,6569.7 7441.46,6569.1 7441.46,6568.36C7441.46,6567.61 7441.23,6567.01 7440.78,6566.56C7440.32,6566.11 7439.72,6565.88 7438.97,6565.88C7438.23,6565.88 7437.64,6566.11 7437.18,6566.56C7436.72,6567.01 7436.49,6567.6 7436.49,6568.32Z" style="fill:rgb(255,209,0);fill-rule:nonzero;"/>
                        <path d="M7445.47,6564.49L7447.4,6564.49L7447.4,6565.2C7447.77,6564.84 7448.09,6564.6 7448.35,6564.47C7448.63,6564.34 7448.99,6564.28 7449.41,6564.28C7450.35,6564.28 7451.1,6564.66 7451.65,6565.41C7452.25,6564.66 7453.07,6564.28 7454.11,6564.28C7455.99,6564.28 7456.93,6565.33 7456.93,6567.43L7456.93,6572.19L7454.99,6572.19L7454.99,6567.91C7454.99,6567.18 7454.89,6566.65 7454.7,6566.35C7454.5,6566.04 7454.17,6565.88 7453.71,6565.88C7453.18,6565.88 7452.79,6566.07 7452.55,6566.43C7452.31,6566.8 7452.19,6567.4 7452.19,6568.21L7452.19,6572.19L7450.25,6572.19L7450.25,6567.94C7450.25,6566.57 7449.82,6565.88 7448.96,6565.88C7448.42,6565.88 7448.02,6566.07 7447.78,6566.44C7447.53,6566.82 7447.4,6567.41 7447.4,6568.21L7447.4,6572.19L7445.47,6572.19L7445.47,6564.49Z" style="fill:rgb(255,209,0);fill-rule:nonzero;"/>
                        <path d="M7466.97,6568.76L7460.99,6568.76C7461.04,6569.39 7461.26,6569.9 7461.65,6570.27C7462.05,6570.64 7462.56,6570.82 7463.17,6570.82C7463.65,6570.82 7464.05,6570.72 7464.36,6570.51C7464.67,6570.3 7465.03,6569.9 7465.42,6569.34L7467.05,6570.17C7466.8,6570.57 7466.53,6570.91 7466.25,6571.19C7465.97,6571.47 7465.67,6571.7 7465.35,6571.89C7465.03,6572.07 7464.69,6572.2 7464.31,6572.28C7463.94,6572.37 7463.54,6572.41 7463.1,6572.41C7461.86,6572.41 7460.86,6572.04 7460.1,6571.3C7459.35,6570.56 7458.97,6569.58 7458.97,6568.35C7458.97,6567.13 7459.34,6566.15 7460.07,6565.39C7460.81,6564.65 7461.78,6564.28 7463,6564.28C7464.23,6564.28 7465.2,6564.64 7465.92,6565.36C7466.63,6566.08 7466.98,6567.07 7466.98,6568.34L7466.97,6568.76ZM7464.99,6567.3C7464.72,6566.36 7464.07,6565.88 7463.04,6565.88C7462.81,6565.88 7462.59,6565.91 7462.38,6565.98C7462.18,6566.05 7461.99,6566.14 7461.82,6566.26C7461.65,6566.39 7461.51,6566.54 7461.39,6566.71C7461.27,6566.89 7461.18,6567.08 7461.11,6567.3L7464.99,6567.3Z" style="fill:rgb(255,209,0);fill-rule:nonzero;"/>
                        <path d="M7475.01,6571.3C7475.01,6571.01 7475.12,6570.75 7475.36,6570.54C7475.59,6570.32 7475.87,6570.21 7476.2,6570.21C7476.53,6570.21 7476.81,6570.32 7477.04,6570.54C7477.27,6570.75 7477.39,6571.01 7477.39,6571.31C7477.39,6571.62 7477.27,6571.88 7477.04,6572.1C7476.81,6572.31 7476.53,6572.41 7476.2,6572.41C7475.86,6572.41 7475.58,6572.31 7475.35,6572.1C7475.12,6571.88 7475.01,6571.62 7475.01,6571.3ZM7475.23,6569.47L7475.23,6559.98L7477.17,6559.98L7477.17,6569.47L7475.23,6569.47Z" style="fill:rgb(255,209,0);fill-rule:nonzero;"/>
                    </g>
                </g>
            </g>
        </g>
    </g>
</svg>
