<?xml version="1.0" encoding="UTF-8" standalone="no"?><!DOCTYPE svg PUBLIC "-//W3C//DTD SVG 1.1//EN" "http://www.w3.org/Graphics/SVG/1.1/DTD/svg11.dtd"><svg width="100%" height="100%" viewBox="0 0 57 56" version="1.1" xmlns="http://www.w3.org/2000/svg" xmlns:xlink="http://www.w3.org/1999/xlink" xml:space="preserve" xmlns:serif="http://www.serif.com/" style="fill-rule:evenodd;clip-rule:evenodd;stroke-linejoin:round;stroke-miterlimit:2;"><path id="QuoteIcon" d="M0.46,52.215c5.574,-6.838 8.859,-12.725 9.856,-17.662c0.996,-4.937 0.683,-10.432 -0.938,-16.483c-3.132,-11.69 3.95,-11.691 13.587,-7.922c5.88,2.3 1.272,15.148 -2.254,22.787c-3.527,7.638 -8.523,14.607 -14.99,20.906c-3.104,3.023 -7.085,0.613 -5.261,-1.626Zm30.153,-8.079c5.644,-6.857 8.964,-12.754 9.96,-17.691c0.997,-4.937 0.684,-10.431 -0.938,-16.483c-2.755,-10.283 7.475,-12.009 13.483,-7.893c8.425,5.771 0.779,31.02 -17.244,43.693c-3.353,2.358 -7.099,0.608 -5.261,-1.626Z" style="fill:#c4a8ff;fill-rule:nonzero;"/></svg>