<?xml version="1.0" encoding="UTF-8" standalone="no"?><!DOCTYPE svg PUBLIC "-//W3C//DTD SVG 1.1//EN" "http://www.w3.org/Graphics/SVG/1.1/DTD/svg11.dtd"><svg width="100%" height="100%" viewBox="0 0 70 83" version="1.1" xmlns="http://www.w3.org/2000/svg" xmlns:xlink="http://www.w3.org/1999/xlink" xml:space="preserve" xmlns:serif="http://www.serif.com/" style="fill-rule:evenodd;clip-rule:evenodd;stroke-linecap:round;stroke-miterlimit:1.5;"><g id="testClock"><g><path d="M25.787,48.458l-1.772,0.301l0.826,4.858l-1.424,0.241l-0.825,-4.857l-1.739,0.296l-0.189,-1.111l4.935,-0.839l0.188,1.111Z" style="fill:#ef5d5c;fill-rule:nonzero;"/><path d="M28.591,52.979l-1.37,0.233l-0.754,-4.435l1.371,-0.233l0.753,4.435Zm-2.399,-5.332c-0.034,-0.197 0.009,-0.37 0.128,-0.519c0.12,-0.15 0.291,-0.244 0.516,-0.282c0.224,-0.038 0.417,-0.006 0.579,0.096c0.162,0.101 0.26,0.251 0.293,0.447c0.034,0.197 -0.009,0.37 -0.128,0.52c-0.12,0.15 -0.291,0.243 -0.516,0.282c-0.224,0.038 -0.417,0.006 -0.579,-0.096c-0.162,-0.102 -0.26,-0.251 -0.293,-0.448Z" style="fill:#ef5d5c;fill-rule:nonzero;"/><path d="M31.12,51.537c0.192,-0.032 0.332,-0.11 0.42,-0.233c0.087,-0.123 0.114,-0.279 0.079,-0.467l1.281,-0.218c0.083,0.487 -0.022,0.915 -0.313,1.285c-0.292,0.37 -0.71,0.601 -1.253,0.694c-0.638,0.108 -1.175,-0.009 -1.611,-0.351c-0.437,-0.342 -0.716,-0.871 -0.837,-1.587l-0.01,-0.057c-0.076,-0.448 -0.062,-0.858 0.043,-1.228c0.106,-0.371 0.297,-0.675 0.574,-0.912c0.276,-0.237 0.626,-0.391 1.047,-0.462c0.571,-0.097 1.051,-0.014 1.44,0.248c0.39,0.263 0.631,0.668 0.724,1.214l-1.282,0.218c-0.039,-0.229 -0.124,-0.396 -0.256,-0.5c-0.131,-0.105 -0.29,-0.141 -0.477,-0.109c-0.354,0.06 -0.522,0.323 -0.504,0.79c0.006,0.148 0.03,0.349 0.073,0.603c0.076,0.446 0.181,0.745 0.316,0.9c0.134,0.154 0.317,0.212 0.546,0.172Z" style="fill:#ef5d5c;fill-rule:nonzero;"/><path d="M37.619,46.448l-1.772,0.301l0.825,4.857l-1.423,0.242l-0.825,-4.857l-1.74,0.295l-0.189,-1.111l4.935,-0.838l0.189,1.111Z" style="fill:#ef5d5c;fill-rule:nonzero;"/><path d="M37.582,49.128c-0.075,-0.443 -0.057,-0.851 0.054,-1.226c0.112,-0.375 0.311,-0.682 0.599,-0.922c0.287,-0.24 0.646,-0.396 1.076,-0.469c0.656,-0.112 1.209,0.006 1.657,0.353c0.449,0.347 0.733,0.874 0.853,1.582l0.009,0.049c0.117,0.691 0.02,1.272 -0.291,1.742c-0.31,0.471 -0.79,0.761 -1.439,0.871c-0.624,0.106 -1.158,0.002 -1.601,-0.312c-0.442,-0.314 -0.734,-0.792 -0.873,-1.435l-0.044,-0.233Zm1.381,-0.146c0.07,0.41 0.184,0.7 0.344,0.869c0.159,0.17 0.363,0.234 0.612,0.192c0.487,-0.083 0.671,-0.504 0.553,-1.263l-0.024,-0.139c-0.135,-0.795 -0.454,-1.15 -0.956,-1.065c-0.457,0.078 -0.646,0.463 -0.568,1.155l0.039,0.251Z" style="fill:#ef5d5c;fill-rule:nonzero;"/><path d="M44.489,49.266c0.192,-0.032 0.331,-0.11 0.419,-0.233c0.087,-0.124 0.114,-0.279 0.079,-0.467l1.281,-0.218c0.083,0.486 -0.022,0.915 -0.313,1.285c-0.292,0.37 -0.71,0.601 -1.253,0.693c-0.638,0.109 -1.175,-0.008 -1.611,-0.35c-0.437,-0.342 -0.716,-0.871 -0.837,-1.587l-0.01,-0.057c-0.076,-0.448 -0.062,-0.858 0.044,-1.229c0.105,-0.37 0.296,-0.674 0.573,-0.911c0.277,-0.237 0.626,-0.391 1.048,-0.463c0.57,-0.097 1.05,-0.014 1.439,0.249c0.39,0.263 0.631,0.668 0.724,1.214l-1.281,0.218c-0.039,-0.23 -0.125,-0.397 -0.256,-0.501c-0.132,-0.104 -0.291,-0.14 -0.478,-0.108c-0.354,0.06 -0.522,0.323 -0.504,0.79c0.006,0.148 0.03,0.349 0.073,0.603c0.076,0.445 0.181,0.745 0.316,0.899c0.135,0.155 0.317,0.212 0.547,0.173Z" style="fill:#ef5d5c;fill-rule:nonzero;"/><path d="M48.596,47.881l-0.319,0.455l0.214,1.262l-1.366,0.232l-1.07,-6.3l1.366,-0.232l0.568,3.345l0.107,-0.208l0.81,-1.47l1.638,-0.279l-1.227,2.085l2.082,2.333l-1.565,0.266l-1.238,-1.489Z" style="fill:#ef5d5c;fill-rule:nonzero;"/></g><path d="M29.493,15.474c17.702,-3.008 34.517,8.923 37.524,26.625c3.008,17.703 -8.922,34.517 -26.625,37.525c-17.702,3.007 -34.517,-8.923 -37.524,-26.625c-3.008,-17.703 8.922,-34.517 26.625,-37.525Z" style="fill:none;stroke:#f5c708;stroke-width:2.67px;"/><path d="M32.721,24.815c-0.066,-0.388 -0.434,-0.649 -0.822,-0.583l-1.406,0.239c-0.388,0.066 -0.649,0.434 -0.583,0.822l2.671,15.721c0.066,0.388 0.434,0.65 0.822,0.584l1.406,-0.239c0.388,-0.066 0.649,-0.434 0.583,-0.822l-2.671,-15.722Z" style="fill:#f5c708;"/><path d="M37.622,57.386c0.037,-0.391 -0.251,-0.739 -0.643,-0.776l-1.42,-0.133c-0.392,-0.037 -0.74,0.251 -0.776,0.643l-0.676,7.201c-0.036,0.392 0.252,0.74 0.644,0.777l1.419,0.133c0.392,0.037 0.74,-0.252 0.777,-0.643l0.675,-7.202Z" style="fill:#f5c708;"/><path d="M34.426,4.182c-0.198,-1.162 -1.301,-1.945 -2.463,-1.748l-11.034,1.875c-1.162,0.197 -1.945,1.301 -1.747,2.463l0.715,4.21c0.198,1.162 1.301,1.945 2.463,1.748l11.034,-1.875c1.161,-0.197 1.945,-1.301 1.747,-2.463l-0.715,-4.21Z" style="fill:none;stroke:#f5c708;stroke-width:2.67px;"/><path d="M50.815,9.75c0.212,-0.571 -0.079,-1.207 -0.65,-1.418l-5.044,-1.872c-0.571,-0.212 -1.206,0.08 -1.418,0.651l-0.767,2.068c-0.212,0.571 0.079,1.206 0.65,1.418l5.044,1.871c0.571,0.212 1.206,-0.079 1.418,-0.65l0.767,-2.068Z" style="fill:none;stroke:#f5c708;stroke-width:2.67px;"/></g></svg>