<?xml version="1.0" encoding="UTF-8" standalone="no"?><!DOCTYPE svg PUBLIC "-//W3C//DTD SVG 1.1//EN" "http://www.w3.org/Graphics/SVG/1.1/DTD/svg11.dtd"><svg width="100%" height="100%" viewBox="0 0 1717 677" version="1.1" xmlns="http://www.w3.org/2000/svg" xmlns:xlink="http://www.w3.org/1999/xlink" xml:space="preserve" xmlns:serif="http://www.serif.com/" style="fill-rule:evenodd;clip-rule:evenodd;stroke-linecap:round;stroke-linejoin:round;stroke-miterlimit:1.5;"><g id="topBgroundDesktop"><circle cx="1502.75" cy="272.031" r="58.217"/><circle cx="144.271" cy="289.597" r="40.651"/><circle cx="508.713" cy="150.984" r="29.929"/><circle cx="914.057" cy="41.902" r="21.207"/><ellipse cx="1112.79" cy="323.795" rx="33.302" ry="38.954"/><circle cx="243.827" cy="654.861" r="21.674"/><circle cx="645.378" cy="278.73" r="21.674"/><circle cx="1236.61" cy="549.88" r="21.674"/><path d="M1564.53,179.408l124.731,-124.731" style="fill:none;stroke:#0f0f0f;stroke-width:1.13px;"/><path d="M1654.77,163.833l-101.229,79.756l-7.188,-7.361l108.417,-72.395Z" style="fill:#070707;"/><path d="M1502.75,213.814l213.814,-213.814l-185.837,229.533l-27.977,-15.719Z"/><path d="M110.764,284.204l-99.662,-103.17l110.397,94.724l-10.735,8.446Z"/><path d="M117.054,318.102l-117.054,-82.916l126.037,72.627l-8.983,10.289Z"/><path d="M233.17,653.329l-123.58,-72.831l131.671,61.827l-8.091,11.004Z"/><path d="M493.452,141.197l-102.549,-89.593l112.905,82.924l-10.356,6.669Z"/></g></svg>